<svg width="19" height="19" viewBox="0 0 19 19" fill="none" xmlns="http://www.w3.org/2000/svg">
<g clip-path="url(#clip0_19_77)">
<path d="M9.50004 1.58325C5.13004 1.58325 1.58337 5.12992 1.58337 9.49992C1.58337 13.8699 5.13004 17.4166 9.50004 17.4166H13.4584V15.8333H9.50004C6.06421 15.8333 3.16671 12.9358 3.16671 9.49992C3.16671 6.06409 6.06421 3.16659 9.50004 3.16659C12.9359 3.16659 15.8334 6.06409 15.8334 9.49992V10.632C15.8334 11.2574 15.2713 11.8749 14.6459 11.8749C14.0205 11.8749 13.4584 11.2574 13.4584 10.632V9.49992C13.4584 7.31492 11.685 5.54159 9.50004 5.54159C7.31504 5.54159 5.54171 7.31492 5.54171 9.49992C5.54171 11.6849 7.31504 13.4583 9.50004 13.4583C10.5925 13.4583 11.59 13.0149 12.3025 12.2945C12.8171 12.9991 13.7038 13.4583 14.6459 13.4583C16.2055 13.4583 17.4167 12.1916 17.4167 10.632V9.49992C17.4167 5.12992 13.87 1.58325 9.50004 1.58325ZM9.50004 11.8749C8.18587 11.8749 7.12504 10.8141 7.12504 9.49992C7.12504 8.18575 8.18587 7.12492 9.50004 7.12492C10.8142 7.12492 11.875 8.18575 11.875 9.49992C11.875 10.8141 10.8142 11.8749 9.50004 11.8749Z" fill="black"/>
</g>
<defs>
<clipPath id="clip0_19_77">
<rect width="19" height="19" fill="white"/>
</clipPath>
</defs>
</svg>
