<svg width="24" height="24" viewBox="0 0 32 32" fill="none" xmlns="http://www.w3.org/2000/svg">
<path d="M20.3852 19.5692C20.1895 19.5052 18.9526 18.9477 19.7255 16.5982H19.7144C21.7292 14.5231 23.2689 11.184 23.2689 7.89663C23.2689 2.84186 19.9076 0.192017 16.0012 0.192017C12.0923 0.192017 8.74949 2.84063 8.74949 7.89663C8.74949 11.1976 10.2806 14.5502 12.3076 16.6203C13.0978 18.6929 11.6849 19.4622 11.3895 19.5705C7.29841 21.0499 2.49841 23.7465 2.49841 26.4086V27.4068C2.49841 31.0339 9.53103 31.8585 16.0393 31.8585C22.5575 31.8585 29.5015 31.0339 29.5015 27.4068V26.4086C29.5015 23.6665 24.6781 20.9908 20.3852 19.5692Z" fill="black"/>
</svg>
